<svg xmlns="http://www.w3.org/2000/svg" viewBox="0 0 512 512"><g paint-order="fill markers stroke"><rect width="390" height="390" x="122" y="122" fill="#fc5b3d" ry="41.1"/><rect width="390" height="390" x="64" y="64" fill="#ffbb25" ry="41.1"/><rect width="390" height="390" fill="#38b1f2" ry="41.1"/><path fill="#5a1a56" d="M109 226.1a13 13 0 0 0-9.4 4L0 332.4V349a41 41 0 0 0 41 41h169.2l-89.8-157.2a13 13 0 0 0-11.5-6.7"/><path fill="#410d4a" d="M272.5 193.2a25 25 0 0 0-17.6 7.4L68.7 390h280.2a41 41 0 0 0 41.1-41v-45.7l-99.9-102.6a25 25 0 0 0-17.6-7.5"/><circle cx="195" cy="137.3" r="64" fill="#ffbb25"/></g></svg>